<?xml version="1.0" encoding="UTF-8" standalone="no"?>
<!DOCTYPE svg PUBLIC "-//W3C//DTD SVG 20010904//EN"
              "http://www.w3.org/TR/2001/REC-SVG-20010904/DTD/svg10.dtd">

<svg xmlns="http://www.w3.org/2000/svg"
     width="5.55556in" height="2.77778in"
     viewBox="0 0 400 200">
  <path id="Selecção #1"
        fill="none" stroke="black" stroke-width="1"
        d="M 192.95,74.24
           C 198.07,75.08 197.37,80.04 194.69,81.83
             192.58,83.23 188.49,82.99 186.00,83.00
             189.37,85.58 190.00,84.72 194.00,84.00
             194.00,84.00 193.00,91.00 193.00,91.00
             193.00,91.00 197.00,91.00 197.00,91.00
             197.00,91.00 197.00,94.00 197.00,94.00
             197.00,94.00 191.00,94.00 191.00,94.00
             190.52,96.56 190.07,98.64 188.64,100.89
             181.41,112.18 168.06,98.21 179.06,92.17
             179.06,92.17 188.00,90.00 188.00,90.00
             182.92,89.15 179.61,84.73 178.00,80.00
             184.60,78.08 186.70,73.22 192.95,74.24 Z
           M 222.00,74.00
           C 222.00,74.00 215.00,83.00 215.00,83.00
             215.00,83.00 218.00,86.00 218.00,86.00
             218.00,86.00 213.00,86.00 213.00,86.00
             211.92,91.95 209.17,101.97 203.00,104.00
             203.00,104.00 206.00,94.00 206.00,94.00
             206.00,94.00 198.00,94.00 198.00,94.00
             198.30,88.56 198.93,84.03 205.00,83.00
             205.00,83.00 203.00,91.00 203.00,91.00
             203.00,91.00 207.00,92.00 207.00,92.00
             207.00,92.00 209.00,86.00 209.00,86.00
             209.00,86.00 207.00,83.00 207.00,83.00
             215.12,78.67 209.67,74.16 222.00,74.00 Z
           M 188.00,80.00
           C 188.00,80.00 193.00,78.00 193.00,78.00
             193.00,78.00 188.00,80.00 188.00,80.00 Z
           M 205.00,79.00
           C 205.00,79.00 205.00,82.00 205.00,82.00
             205.00,82.00 202.00,82.00 202.00,82.00
             202.00,82.00 202.00,79.00 202.00,79.00
             202.00,79.00 205.00,79.00 205.00,79.00 Z
           M 179.00,101.00
           C 184.09,100.15 184.93,98.97 186.00,94.00
             181.15,95.59 179.88,95.72 179.00,101.00 Z
           M 187.43,124.43
           C 185.98,123.69 185.48,122.49 185.24,120.95
             183.84,111.67 197.81,108.23 197.85,118.00
             197.86,119.33 197.56,120.73 197.22,122.00
             197.22,122.00 195.00,129.00 195.00,129.00
             195.00,129.00 198.00,132.00 198.00,132.00
             198.00,132.00 190.00,132.00 190.00,132.00
             190.00,132.00 191.00,125.00 191.00,125.00
             189.81,124.91 188.53,124.98 187.43,124.43 Z
           M 188.00,120.00
           C 188.00,120.00 192.00,124.00 192.00,124.00
             193.51,119.95 193.98,119.30 193.00,115.00
             193.00,115.00 188.00,120.00 188.00,120.00 Z
           M 209.00,117.00
           C 209.00,117.00 210.00,124.00 210.00,124.00
             210.00,124.00 205.00,129.00 205.00,129.00
             205.00,129.00 208.00,132.00 208.00,132.00
             208.00,132.00 201.00,132.00 201.00,132.00
             201.00,132.00 201.00,121.00 201.00,121.00
             201.00,121.00 209.00,117.00 209.00,117.00 Z
           M 201.00,8.00
           C 201.00,8.00 216.32,48.00 216.32,48.00
             217.79,51.97 221.35,62.81 224.39,65.15
             227.43,67.48 235.75,67.02 240.00,67.58
             240.00,67.58 286.00,71.00 286.00,71.00
             283.31,75.93 278.30,79.12 274.00,82.61
             274.00,82.61 251.00,101.42 251.00,101.42
             248.54,103.44 240.22,109.83 239.11,112.17
             237.60,115.34 241.18,126.23 242.13,130.00
             242.13,130.00 252.00,173.00 252.00,173.00
             245.87,171.21 242.26,168.08 237.00,164.69
             237.00,164.69 214.00,150.00 214.00,150.00
             211.00,148.02 202.14,141.72 199.00,141.48
             195.34,141.21 186.44,147.71 183.00,149.80
             183.00,149.80 144.00,173.00 144.00,173.00
             144.00,173.00 155.63,128.00 155.63,128.00
             156.65,123.89 160.20,114.63 158.23,111.04
             156.94,108.68 149.44,102.64 147.00,100.59
             147.00,100.59 124.00,81.13 124.00,81.13
             119.83,77.54 114.72,74.39 113.00,69.00
             113.00,69.00 158.00,67.00 158.00,67.00
             161.33,66.96 172.30,66.28 174.61,64.40
             177.43,62.10 181.24,50.89 182.80,47.00
             182.80,47.00 199.00,8.00 199.00,8.00
             199.00,8.00 201.00,8.00 201.00,8.00 Z
           M 282.00,199.00
           C 282.00,199.00 364.00,199.00 364.00,199.00
             364.00,199.00 387.00,199.00 387.00,199.00
             387.00,199.00 400.00,200.00 400.00,200.00
             400.00,200.00 118.00,200.00 118.00,200.00
             118.00,200.00 36.00,200.00 36.00,200.00
             36.00,200.00 13.00,200.00 13.00,200.00
             13.00,200.00 0.00,199.00 0.00,199.00
             0.00,199.00 282.00,199.00 282.00,199.00 Z" />
</svg>
